HIERARCHY
ROOT Hips
{
 OFFSET 0.000000 0.000000 0.000000
 CHANNELS 6 Xposition Yposition Zposition Yrotation Xrotation Zrotation
 JOINT Chest
 {
  OFFSET 0.000000 14.374500 -0.011500
  CHANNELS 3 Yrotation Xrotation Zrotation
  JOINT Chest2
  {
   OFFSET 0.000000 9.203400 0.023400
   CHANNELS 3 Yrotation Xrotation Zrotation
   JOINT Chest3
   {
    OFFSET 0.000000 9.162700 0.000000
    CHANNELS 3 Yrotation Xrotation Zrotation
    JOINT Chest4
    {
     OFFSET 0.000000 9.153300 0.000000
     CHANNELS 3 Yrotation Xrotation Zrotation
     JOINT Neck
     {
      OFFSET 0.000000 13.353600 0.000000
      CHANNELS 3 Yrotation Xrotation Zrotation
      JOINT Head
      {
       OFFSET 0.000000 8.573800 0.049400
       CHANNELS 3 Yrotation Xrotation Zrotation
       End Site
       {
        OFFSET 0.000000 16.219200 0.026100
       }
      }
     }
     JOINT RightCollar
     {
      OFFSET -2.497100 8.876100 0.000000
      CHANNELS 3 Yrotation Xrotation Zrotation
      JOINT RightShoulder
      {
       OFFSET -12.289200 0.000000 0.000000
       CHANNELS 3 Yrotation Xrotation Zrotation
       JOINT RightElbow
       {
        OFFSET 0.000000 -28.194900 0.000000
        CHANNELS 3 Yrotation Xrotation Zrotation
        JOINT RightWrist
        {
         OFFSET 0.000000 -23.009700 0.007900
         CHANNELS 3 Yrotation Xrotation Zrotation
         End Site
         {
          OFFSET 0.000000 -17.151500 0.000000
         }
        }
       }
      }
     }
     JOINT LeftCollar
     {
      OFFSET 2.497100 8.876100 0.000000
      CHANNELS 3 Yrotation Xrotation Zrotation
      JOINT LeftShoulder
      {
       OFFSET 12.289200 0.000000 0.000000
       CHANNELS 3 Yrotation Xrotation Zrotation
       JOINT LeftElbow
       {
        OFFSET 0.000000 -28.194900 0.000000
        CHANNELS 3 Yrotation Xrotation Zrotation
        JOINT LeftWrist
        {
         OFFSET 0.000000 -23.009700 0.007900
         CHANNELS 3 Yrotation Xrotation Zrotation
         End Site
         {
          OFFSET 0.000000 -17.151500 0.000000
         }
        }
       }
      }
     }
    }
   }
  }
 }
 JOINT RightHip
 {
  OFFSET -11.777600 0.056700 0.005700
  CHANNELS 3 Yrotation Xrotation Zrotation
  JOINT RightKnee
  {
   OFFSET 0.000000 -39.966000 -0.004200
   CHANNELS 3 Yrotation Xrotation Zrotation
   JOINT RightAnkle
   {
    OFFSET 0.000000 -41.981900 0.027400
    CHANNELS 3 Yrotation Xrotation Zrotation
    JOINT RightToe
    {
     OFFSET 0.000000 -9.910600 16.950100
     CHANNELS 3 Yrotation Xrotation Zrotation
     End Site
     {
      OFFSET 0.000000 -1.461000 6.191600
     }
    }
   }
  }
 }
 JOINT LeftHip
 {
  OFFSET 11.777600 0.056700 0.005700
  CHANNELS 3 Yrotation Xrotation Zrotation
  JOINT LeftKnee
  {
   OFFSET 0.000000 -39.966000 -0.004200
   CHANNELS 3 Yrotation Xrotation Zrotation
   JOINT LeftAnkle
   {
    OFFSET 0.000000 -41.981900 0.027400
    CHANNELS 3 Yrotation Xrotation Zrotation
    JOINT LeftToe
    {
     OFFSET 0.000000 -9.910600 16.950100
     CHANNELS 3 Yrotation Xrotation Zrotation
     End Site
     {
      OFFSET 0.000000 -1.461000 6.191600
     }
    }
   }
  }
 }
}
MOTION
Frames: 12
Frame Time: 0.008333
0.000000 91.618700 0.000000 0.000000 -5.767877 0.000000 0.000000 11.653817 0.000000 0.000000 -5.885947 0.000000 0.000000 -0.000000 0.000000 0.000000 -0.000000 0.000000 0.000000 12.528835 0.000000 0.000000 0.711642 0.000000 0.000000 -0.000000 0.000000 0.000000 0.000000 -90.000000 0.000000 -2.309062 0.000000 0.000000 2.309062 0.000000 0.000000 -0.000000 0.000000 0.000000 -0.000000 90.000000 0.000000 -2.309062 0.000000 0.000000 2.309062 0.000000 0.000000 8.520406 0.000000 0.000000 1.905762 0.000000 -0.000000 -4.658285 0.000000 0.000000 -0.000000 0.000000 0.000000 8.520406 0.000000 0.000000 1.905762 0.000000 -0.000000 -4.658285 0.000000 0.000000 -0.000000 0.000000
2.872037 152.641420 48.609666 176.578922 -49.124947 -3.079596 3.327923 26.095964 2.750283 0.421102 4.391215 0.404110 0.693030 6.948671 0.640885 2.483056 21.419473 2.337773 0.473198 16.418159 0.173187 0.454973 -8.502270 0.074081 3.325329 -4.935020 1.549443 12.272609 -26.920872 -7.761318 36.057667 -38.593260 -18.703538 29.149591 14.990820 -6.788443 -12.709586 -7.495723 -2.192958 -4.807069 -24.925691 5.073248 -27.557724 -40.837829 6.271536 -16.040183 -3.892767 14.589873 7.452474 -28.553150 1.542936 -77.472710 83.777128 -80.521744 -0.268083 -25.120054 9.450944 0.096586 -0.268506 0.059304 -2.447483 -26.567323 -4.881483 110.397975 76.756562 119.769570 7.637614 -6.458407 -7.442909 0.101520 -2.544281 -1.518130
2.193438 145.617510 49.728559 176.693274 -49.100546 -3.262855 3.278216 26.148900 2.891865 0.416967 4.406527 0.410067 0.686552 6.971371 0.650056 2.461822 21.448186 2.360267 0.477830 16.313047 0.060151 0.495899 -8.596070 -0.046874 3.381914 -5.016951 1.519432 12.370595 -26.807981 -8.089710 35.603006 -39.128448 -18.230054 29.218722 15.125066 -7.093590 -12.710490 -7.550282 -2.170541 -4.979537 -24.915631 5.224021 -26.960777 -41.009667 5.828360 -16.018538 -3.985996 14.818539 7.338808 -28.601850 1.646452 -77.775680 83.795161 -80.813552 -0.236078 -25.223704 9.461898 0.050420 -0.187192 0.029463 -2.554122 -26.562170 -4.762620 110.409317 76.764949 119.767388 7.667525 -6.418396 -7.400197 0.022771 0.128716 0.013305
1.630006 139.829450 50.651389 176.799696 -49.055069 -3.404349 3.208210 26.203200 2.999134 0.418013 4.403067 0.404715 0.692637 6.936313 0.628893 2.442330 21.536260 2.421134 0.474053 16.181028 -0.050857 0.548305 -8.681346 -0.164213 3.421498 -5.140480 1.426897 12.462619 -26.662980 -8.348738 35.152922 -39.666716 -17.766771 29.298696 15.261752 -7.371984 -12.708880 -7.595480 -2.148910 -5.128267 -24.912006 5.371420 -26.387584 -41.198718 5.387968 -15.982268 -4.085239 15.044087 7.250089 -28.665452 1.705220 -78.056873 83.817450 -81.085030 -0.228174 -25.316622 9.472252 0.017782 -0.105947 0.010392 -2.648371 -26.587950 -4.686306 110.407246 76.772265 119.756853 7.671407 -6.377577 -7.382212 -0.001551 0.069585 -0.000911
1.219314 135.648216 51.316826 176.854787 -49.010465 -3.473956 3.158482 26.238723 3.059270 0.414211 4.420586 0.411097 0.681205 6.991413 0.654014 2.421478 21.540627 2.426966 0.488229 16.068627 -0.162283 0.586083 -8.803446 -0.273079 3.491238 -5.157804 1.461676 12.614037 -26.591762 -8.781990 34.704419 -40.205572 -17.316240 29.379604 15.396432 -7.622570 -12.703758 -7.632995 -2.132510 -5.244566 -24.910303 5.510691 -25.851575 -41.412193 4.964773 -15.938901 -4.181804 15.250438 7.204257 -28.721145 1.729857 -78.248491 83.829340 -81.273830 -0.222273 -25.359496 9.474337 0.008299 -0.065097 0.004851 -2.691672 -26.619895 -4.647823 110.401910 76.781124 119.752839 7.652732 -6.358784 -7.378247 -0.012321 0.032585 -0.007207
0.963950 133.005010 51.738144 176.889101 -48.959293 -3.532785 3.128450 26.247771 3.116791 0.418467 4.409672 0.403095 0.660953 7.098308 0.707670 2.403417 21.545074 2.432776 0.497660 15.950564 -0.269483 0.628101 -8.935500 -0.385824 3.536153 -5.190534 1.456315 12.770990 -26.513193 -9.164556 34.253880 -40.739717 -16.882093 29.454817 15.525168 -7.843514 -12.704044 -7.665079 -2.121405 -5.318215 -24.905005 5.636423 -25.364501 -41.650508 4.566373 -15.890720 -4.267744 15.433215 7.183683 -28.782041 1.751357 -78.393730 83.841707 -81.402830 -0.220006 -25.403103 9.476256 -0.001282 -0.021980 -0.000750 -2.713276 -26.660587 -4.606987 110.405596 76.791925 119.767167 7.648701 -6.345655 -7.375460 -0.007447 0.010653 -0.004355
0.820984 131.553818 51.965544 176.890350 -48.935720 -3.539661 3.110983 26.305894 3.159539 0.408393 4.453331 0.422632 0.661826 7.102405 0.704394 2.387629 21.579910 2.458497 0.501961 15.824264 -0.372327 0.671927 -9.073554 -0.501198 3.563420 -5.229740 1.428912 12.922857 -26.432448 -9.505587 33.808275 -41.264684 -16.473745 29.519619 15.644022 -8.035661 -12.712302 -7.689604 -2.110941 -5.344430 -24.899313 5.742235 -24.924413 -41.908147 4.187274 -15.841527 -4.341659 15.592401 7.195599 -28.806742 1.750572 -78.531821 83.854247 -81.532334 -0.222134 -25.422608 9.478638 -0.002082 -0.011683 -0.001217 -2.697489 -26.676664 -4.590246 110.520163 76.802397 119.862518 7.674374 -6.375733 -7.353932 -0.014090 0.010136 -0.008239
0.753366 130.862323 52.072562 176.893442 -48.910922 -3.544931 3.089343 26.381904 3.209124 0.404596 4.478021 0.431161 0.659496 7.107123 0.700763 2.371009 21.616142 2.484309 0.549438 15.717917 -0.468254 0.677687 -9.244207 -0.611441 3.587602 -5.254714 1.403878 13.062657 -26.362701 -9.830347 33.377369 -41.784521 -16.090951 29.570229 15.751011 -8.203742 -12.716579 -7.701188 -2.102214 -5.322523 -24.900467 5.825411 -24.528394 -42.182635 3.822217 -15.789149 -4.403440 15.724127 7.186218 -28.833925 1.763229 -78.695863 83.849501 -81.704597 -0.227976 -25.432417 9.480493 0.000794 -0.008330 0.000464 -2.681257 -26.701925 -4.585052 110.570157 76.805372 119.916867 7.686678 -6.375071 -7.359811 -0.014112 0.007239 -0.008252
0.726707 130.579398 52.114917 176.894456 -48.889132 -3.548828 3.070792 26.436291 3.247019 0.401051 4.498279 0.437957 0.654041 7.137164 0.711346 2.352588 21.652972 2.509502 0.551984 15.572037 -0.576361 0.734853 -9.385459 -0.720993 3.614197 -5.263919 1.381191 13.174996 -26.302411 -10.134351 32.968244 -42.302532 -15.731505 29.608778 15.845112 -8.347830 -12.712808 -7.696327 -2.098998 -5.253730 -24.909501 5.885738 -24.177803 -42.473389 3.469934 -15.730320 -4.457124 15.832956 7.167014 -28.855666 1.776199 -78.788585 83.848317 -81.814487 -0.224148 -25.438102 9.480397 0.002379 -0.007313 0.001391 -2.666070 -26.726331 -4.573070 110.623921 76.810676 119.975547 7.682277 -6.376780 -7.358698 -0.011788 0.004558 -0.006892
0.717939 130.481965 52.127488 176.894122 -48.875601 -3.549069 3.060567 26.459732 3.264141 0.388225 4.553050 0.466100 0.648405 7.166643 0.721903 2.333950 21.688911 2.534534 0.556499 15.430082 -0.683995 0.792786 -9.537404 -0.824882 3.641553 -5.258077 1.361049 13.244293 -26.249427 -10.406771 32.595060 -42.816229 -15.401439 29.635409 15.926949 -8.469975 -12.702079 -7.678980 -2.100882 -5.149308 -24.919952 5.925127 -23.862185 -42.779193 3.128326 -15.669545 -4.511203 15.925321 7.144937 -28.865519 1.788609 -78.867631 83.839570 -81.912822 -0.219158 -25.445189 9.480004 0.002080 -0.006510 0.001216 -2.648826 -26.739425 -4.562431 110.662878 76.818287 120.019707 7.671682 -6.381642 -7.358221 -0.009237 0.003609 -0.005401
0.716959 130.454945 52.129086 176.899466 -48.867909 -3.556476 3.033215 26.538924 3.308652 0.400214 4.512712 0.437838 0.635373 7.237411 0.757912 2.316581 21.724063 2.559260 0.608303 15.290556 -0.763924 0.804847 -9.691163 -0.931678 3.670109 -5.241120 1.343801 13.258542 -26.202738 -10.637307 32.264181 -43.323974 -15.103906 29.649957 15.996891 -8.573349 -12.686485 -7.654565 -2.107383 -5.027758 -24.926862 5.950383 -23.562951 -43.096109 2.797420 -15.608234 -4.565035 16.002996 7.116107 -28.867988 1.805042 -78.924252 83.824614 -81.990268 -0.211047 -25.445297 9.485837 -0.001250 -0.004866 -0.000731 -2.623832 -26.750894 -4.546969 110.721562 76.833047 120.097122 7.657867 -6.383246 -7.363246 -0.001383 -0.002124 -0.000808
0.717197 130.447786 52.129368 176.899469 -48.852913 -3.555953 3.006914 26.606098 3.346371 0.412029 4.476668 0.411270 0.623721 7.304588 0.791769 2.301597 21.759258 2.582781 0.628183 15.151951 -0.848705 0.844401 -9.835197 -1.024053 3.701070 -5.215999 1.331004 13.216546 -26.162163 -10.821250 31.972908 -43.823947 -14.843150 29.656413 16.052192 -8.660188 -12.672273 -7.626548 -2.120708 -4.902085 -24.930018 5.968492 -23.268811 -43.415969 2.482064 -15.544313 -4.616672 16.071747 7.104652 -28.880305 1.807882 -78.997137 83.813034 -82.070110 -0.201952 -25.448913 9.487965 -0.000816 -0.003005 -0.000477 -2.618298 -26.767396 -4.544788 110.739731 76.834859 120.118590 7.655653 -6.385315 -7.371896 -0.000432 -0.002994 -0.000252
